<svg width="36" height="36" viewBox="0 0 36 36" fill="none" xmlns="http://www.w3.org/2000/svg">
<path opacity="0.4" d="M26.4838 30.1617H25.0125V29.7939C25.0125 28.1754 23.6883 26.8512 22.0699 26.8512H18.7594V23.4819C18.3916 23.5261 18.0238 23.5408 17.656 23.5408C17.2881 23.5408 16.9203 23.5261 16.5525 23.4819V26.8512H13.242C11.6236 26.8512 10.2994 28.1754 10.2994 29.7939V30.1617H8.82809C8.22486 30.1617 7.72461 30.6619 7.72461 31.2652C7.72461 31.8684 8.22486 32.3687 8.82809 32.3687H26.4838C27.0871 32.3687 27.5873 31.8684 27.5873 31.2652C27.5873 30.6619 27.0871 30.1617 26.4838 30.1617Z" fill="#008FE9"/>
<path opacity="0.4" d="M8.12154 17.1259C7.15048 16.7581 6.29712 16.1549 5.62031 15.4781C4.25199 13.9626 3.35449 12.1529 3.35449 10.0342C3.35449 7.91551 5.01707 6.25293 7.13576 6.25293H7.9597C7.57716 7.03272 7.35646 7.9008 7.35646 8.82773V13.2417C7.35646 14.6247 7.6213 15.9342 8.12154 17.1259Z" fill="#008FE9"/>
<path opacity="0.4" d="M31.9565 10.0342C31.9565 12.1529 31.059 13.9626 29.6907 15.4781C29.0139 16.1549 28.1605 16.7581 27.1895 17.1259C27.6897 15.9342 27.9545 14.6247 27.9545 13.2417V8.82773C27.9545 7.9008 27.7338 7.03272 27.3513 6.25293H28.1752C30.2939 6.25293 31.9565 7.91551 31.9565 10.0342Z" fill="#008FE9"/>
<path d="M22.0696 2.94238H13.2417C9.99009 2.94238 7.35645 5.57603 7.35645 8.82763V13.2416C7.35645 18.9355 11.9617 23.5407 17.6556 23.5407C23.3496 23.5407 27.9548 18.9355 27.9548 13.2416V8.82763C27.9548 5.57603 25.3212 2.94238 22.0696 2.94238ZM21.8342 12.4323L20.9219 13.5505C20.7748 13.7124 20.6718 14.0361 20.6865 14.2568L20.7748 15.6987C20.8337 16.5814 20.201 17.0375 19.3771 16.7139L18.0382 16.1842C17.8322 16.1106 17.4791 16.1106 17.2731 16.1842L15.9342 16.7139C15.1103 17.0375 14.4776 16.5814 14.5364 15.6987L14.6247 14.2568C14.6394 14.0361 14.5364 13.7124 14.3893 13.5505L13.4771 12.4323C12.9033 11.7555 13.1534 11.0052 14.0068 10.7845L15.4045 10.4314C15.6252 10.3725 15.8901 10.1665 16.0078 9.97525L16.7876 8.76878C17.2731 8.01841 18.0382 8.01841 18.5237 8.76878L19.3035 9.97525C19.4212 10.1665 19.686 10.3725 19.9067 10.4314L21.3045 10.7845C22.1578 11.0052 22.408 11.7555 21.8342 12.4323Z" fill="#008FE9"/>
<path opacity="0.4" d="M21.8338 12.4324L20.9216 13.5506C20.7745 13.7124 20.6715 14.0361 20.6862 14.2568L20.7745 15.6987C20.8333 16.5815 20.2006 17.0376 19.3767 16.7139L18.0378 16.1842C17.8318 16.1107 17.4787 16.1107 17.2727 16.1842L15.9338 16.7139C15.1099 17.0376 14.4772 16.5815 14.5361 15.6987L14.6244 14.2568C14.6391 14.0361 14.5361 13.7124 14.389 13.5506L13.4767 12.4324C12.9029 11.7556 13.1531 11.0052 14.0064 10.7845L15.4042 10.4314C15.6249 10.3726 15.8897 10.1666 16.0074 9.97531L16.7872 8.76883C17.2727 8.01846 18.0378 8.01846 18.5233 8.76883L19.3031 9.97531C19.4208 10.1666 19.6857 10.3726 19.9064 10.4314L21.3041 10.7845C22.1575 11.0052 22.4076 11.7556 21.8338 12.4324Z" fill="#008FE9"/>
</svg>
