<svg width="27" height="32" viewBox="0 0 27 32" fill="none" xmlns="http://www.w3.org/2000/svg">
<g filter="url(#filter0_d_271_579)">
<path fill-rule="evenodd" clip-rule="evenodd" d="M9.30518 18.4189H17.5552V24.168C17.5552 24.8081 17.5552 25.1282 17.4203 25.3245C17.3025 25.496 17.1201 25.6124 16.9149 25.6469C16.68 25.6863 16.3898 25.5513 15.8094 25.2814L13.4302 24.1748L11.0509 25.2814C10.4705 25.5513 10.1803 25.6863 9.94543 25.6469C9.74023 25.6124 9.55783 25.496 9.44002 25.3245C9.30518 25.1282 9.30518 24.8081 9.30518 24.168V18.4189Z" fill="#D53951"/>
</g>
<mask id="mask0_271_579" style="mask-type:luminance" maskUnits="userSpaceOnUse" x="9" y="18" width="9" height="8">
<path fill-rule="evenodd" clip-rule="evenodd" d="M9.30518 18.4189H17.5552V24.89C17.5552 25.4511 16.9728 25.8225 16.4641 25.5859L13.4302 24.1748L10.3963 25.5859C9.88755 25.8225 9.30518 25.4511 9.30518 24.89V18.4189Z" fill="white"/>
</mask>
<g mask="url(#mask0_271_579)">
<g filter="url(#filter1_d_271_579)">
<path fill-rule="evenodd" clip-rule="evenodd" d="M9.30518 18.4189H17.5552V24.168C17.5552 24.8081 17.5552 25.1282 17.4203 25.3245C17.3025 25.496 17.1201 25.6124 16.9149 25.6469C16.68 25.6863 16.3898 25.5513 15.8094 25.2814L13.4302 24.1748L11.0509 25.2814C10.4705 25.5513 10.1803 25.6863 9.94543 25.6469C9.74023 25.6124 9.55783 25.496 9.44002 25.3245C9.30518 25.1282 9.30518 24.8081 9.30518 24.168V18.4189Z" fill="#D53951"/>
</g>
<path fill-rule="evenodd" clip-rule="evenodd" d="M9.30518 18.4189H17.5552V26.0934L13.4302 24.1748L9.30518 26.0934V18.4189Z" fill="url(#paint0_linear_271_579)" fill-opacity="0.3" style="mix-blend-mode:overlay"/>
<path fill-rule="evenodd" clip-rule="evenodd" d="M9.30518 18.4189H17.5552V26.0934L13.4302 24.1748L9.30518 26.0934V18.4189Z" fill="url(#paint1_radial_271_579)" fill-opacity="0.6" style="mix-blend-mode:overlay"/>
<path d="M9.40088 14.6064H17.4595C17.499 14.6066 17.5306 14.6382 17.5308 14.6777V24.8906C17.5305 25.434 16.9668 25.7936 16.4741 25.5645L13.481 24.1719C13.4489 24.157 13.4115 24.157 13.3794 24.1719L10.3862 25.5645C9.8935 25.7936 9.3298 25.434 9.32959 24.8906V14.6777C9.32971 14.6382 9.36132 14.6066 9.40088 14.6064Z" stroke="url(#paint2_linear_271_579)" stroke-width="0.0479651" stroke-linecap="round" stroke-linejoin="round"/>
</g>
<g filter="url(#filter2_dddd_271_579)">
<circle cx="13" cy="11.0814" r="9.2093" fill="white"/>
</g>
<mask id="mask1_271_579" style="mask-type:alpha" maskUnits="userSpaceOnUse" x="3" y="1" width="20" height="20">
<circle cx="13" cy="11.0814" r="9.2093" fill="white"/>
</mask>
<g mask="url(#mask1_271_579)">
<mask id="mask2_271_579" style="mask-type:alpha" maskUnits="userSpaceOnUse" x="3" y="1" width="20" height="20">
<circle cx="13" cy="11.0814" r="9.2093" fill="white"/>
</mask>
<g mask="url(#mask2_271_579)">
<rect x="-0.430298" y="-2.34863" width="26.8605" height="26.8605" fill="#3F434A"/>
<rect x="-0.430298" y="-2.34863" width="26.8605" height="26.8605" fill="url(#paint3_linear_271_579)" fill-opacity="0.6" style="mix-blend-mode:overlay"/>
<rect x="-0.430298" y="-2.34863" width="26.8605" height="26.8605" fill="url(#paint4_radial_271_579)" fill-opacity="0.6" style="mix-blend-mode:overlay"/>
<rect x="-0.430298" y="-2.34863" width="26.8605" height="26.8605" fill="black" fill-opacity="0.16" style="mix-blend-mode:overlay"/>
<rect x="-0.430298" y="-2.34863" width="26.8605" height="26.8605" fill="black" fill-opacity="0.12" style="mix-blend-mode:darken"/>
</g>
<g filter="url(#filter3_d_271_579)">
<mask id="mask3_271_579" style="mask-type:alpha" maskUnits="userSpaceOnUse" x="3" y="1" width="20" height="20">
<path d="M12.9991 1.87207C18.0851 1.87207 22.2087 5.99524 22.2091 11.0811L22.1964 11.5557C21.9496 16.4214 17.9262 20.291 12.9991 20.291L12.5255 20.2783C7.65984 20.0314 3.79016 16.0081 3.79016 11.0811C3.79057 5.99549 7.91358 1.87248 12.9991 1.87207ZM12.9991 2.63965C8.33743 2.64005 4.55814 6.41934 4.55774 11.0811C4.55774 15.7431 8.33718 19.523 12.9991 19.5234C17.6615 19.5234 21.4415 15.7434 21.4415 11.0811C21.4411 6.41909 17.6612 2.63965 12.9991 2.63965ZM12.1534 3.87891C12.6668 3.53952 13.3335 3.53945 13.8468 3.87891C13.9652 3.95725 14.0847 4.07279 14.3234 4.30371C14.4498 4.42606 14.513 4.48768 14.5792 4.53906C14.8614 4.75787 15.2116 4.87155 15.5685 4.86035C15.6522 4.85769 15.7393 4.84492 15.9132 4.82031C16.2422 4.77377 16.4071 4.75058 16.549 4.75684C17.1636 4.78403 17.7022 5.17584 17.9181 5.75195C17.9679 5.88495 17.9974 6.04878 18.0548 6.37598C18.0852 6.54929 18.0998 6.63629 18.1232 6.7168C18.2228 7.05966 18.4392 7.35687 18.7345 7.55762C18.8038 7.60475 18.8818 7.64604 19.0372 7.72852C19.3308 7.88427 19.4779 7.96231 19.589 8.05078C20.0703 8.43414 20.2757 9.06808 20.1115 9.66113C20.0735 9.79801 20.0005 9.94756 19.8546 10.2461C19.7776 10.4037 19.7394 10.4828 19.7111 10.5615C19.5901 10.8975 19.5901 11.2655 19.7111 11.6016C19.7395 11.6804 19.7773 11.7599 19.8546 11.918C20.0003 12.2161 20.0735 12.3652 20.1115 12.502C20.2757 13.0951 20.0705 13.7299 19.589 14.1133C19.4779 14.2017 19.3306 14.2789 19.0372 14.4346C18.8818 14.517 18.8038 14.5584 18.7345 14.6055C18.4391 14.8062 18.2228 15.1043 18.1232 15.4473C18.0999 15.5276 18.0851 15.6143 18.0548 15.7871C17.9974 16.1144 17.9679 16.2781 17.9181 16.4111C17.7023 16.9874 17.1637 17.379 16.549 17.4062C16.407 17.4125 16.2423 17.3893 15.9132 17.3428C15.7393 17.3182 15.6521 17.3064 15.5685 17.3037C15.2115 17.2925 14.8614 17.4061 14.5792 17.625C14.513 17.6763 14.4496 17.7372 14.3234 17.8594C14.0848 18.0902 13.9651 18.2058 13.8468 18.2842C13.3334 18.6237 12.6668 18.6237 12.1534 18.2842C12.035 18.2058 11.9157 18.0904 11.6769 17.8594C11.5507 17.7373 11.4871 17.6763 11.421 17.625C11.1388 17.4061 10.7887 17.2925 10.4318 17.3037C10.348 17.3063 10.2609 17.3182 10.087 17.3428C9.75812 17.3893 9.59316 17.4125 9.45129 17.4062C8.83642 17.3792 8.29696 16.9875 8.08118 16.4111C8.03143 16.2782 8.00282 16.1142 7.94543 15.7871C7.9151 15.6142 7.89943 15.5277 7.8761 15.4473C7.77645 15.1043 7.56013 14.8062 7.26477 14.6055C7.19555 14.5585 7.11807 14.5168 6.96301 14.4346C6.66969 14.2789 6.52235 14.2017 6.41125 14.1133C5.92974 13.7299 5.72358 13.0951 5.88782 12.502C5.92574 12.3652 5.99894 12.2161 6.14465 11.918C6.22193 11.7599 6.26079 11.6805 6.28918 11.6016C6.4101 11.2656 6.41013 10.8975 6.28918 10.5615C6.2608 10.4828 6.22179 10.4039 6.14465 10.2461C5.99871 9.94754 5.92572 9.79802 5.88782 9.66113C5.72364 9.06801 5.92977 8.4341 6.41125 8.05078C6.52238 7.96233 6.66949 7.88425 6.96301 7.72852C7.1181 7.64623 7.19552 7.60467 7.26477 7.55762C7.5601 7.35689 7.77643 7.05968 7.8761 6.7168C7.89949 6.63628 7.91503 6.5493 7.94543 6.37598C8.00282 6.04883 8.03139 5.88494 8.08118 5.75195C8.29701 5.17567 8.8365 4.78393 9.45129 4.75684C9.59315 4.75061 9.75814 4.77379 10.087 4.82031C10.261 4.84492 10.348 4.85772 10.4318 4.86035C10.7887 4.87154 11.1388 4.75793 11.421 4.53906C11.4872 4.4877 11.5505 4.42596 11.6769 4.30371C11.9155 4.07283 12.035 3.95722 12.1534 3.87891Z" fill="white"/>
</mask>
<g mask="url(#mask3_271_579)">
<rect x="-0.430298" y="-2.34863" width="26.8605" height="26.8605" fill="#3F434A"/>
<rect x="-0.430298" y="-2.34863" width="26.8605" height="26.8605" fill="url(#paint5_linear_271_579)" fill-opacity="0.6" style="mix-blend-mode:overlay"/>
<rect x="-0.430298" y="-2.34863" width="26.8605" height="26.8605" fill="url(#paint6_radial_271_579)" fill-opacity="0.6" style="mix-blend-mode:overlay"/>
<path fill-rule="evenodd" clip-rule="evenodd" d="M-0.430298 -2.34863H15.686L10.5425 24.5118H-0.430298V-2.34863Z" fill="url(#paint7_linear_271_579)" style="mix-blend-mode:lighten"/>
<g opacity="0.04" style="mix-blend-mode:plus-lighter">
<path d="M16.1161 22.2568H10.744L13.4305 11.5127L16.1161 22.2568ZM7.7323 21.0088L3.93347 17.21L13.4305 11.5127L7.7323 21.0088ZM22.9266 17.21L19.1278 21.0088L13.4305 11.5127L22.9266 17.21ZM13.4305 11.5127L2.6864 14.1982V8.82617L13.4305 11.5127ZM24.1747 14.1982L13.4305 11.5127L24.1747 8.82617V14.1982ZM13.4305 11.5127L10.744 0.768555H16.1161L13.4305 11.5127ZM22.9266 5.81445L13.4305 11.5127L19.1278 2.01562L22.9266 5.81445ZM13.4305 11.5127L3.93347 5.81445L7.7323 2.01562L13.4305 11.5127Z" fill="url(#paint8_radial_271_579)"/>
</g>
<mask id="path-17-inside-1_271_579" fill="white">
<path d="M12.9991 1.87207C18.0851 1.87207 22.2087 5.99524 22.2091 11.0811L22.1964 11.5557C21.9496 16.4214 17.9262 20.291 12.9991 20.291L12.5255 20.2783C7.65984 20.0314 3.79016 16.0081 3.79016 11.0811C3.79057 5.99549 7.91358 1.87248 12.9991 1.87207ZM12.9991 2.63965C8.33743 2.64005 4.55814 6.41934 4.55774 11.0811C4.55774 15.7431 8.33718 19.523 12.9991 19.5234C17.6615 19.5234 21.4415 15.7434 21.4415 11.0811C21.4411 6.41909 17.6612 2.63965 12.9991 2.63965ZM12.1534 3.87891C12.6668 3.53952 13.3335 3.53945 13.8468 3.87891C13.9652 3.95725 14.0847 4.07279 14.3234 4.30371C14.4498 4.42606 14.513 4.48768 14.5792 4.53906C14.8614 4.75787 15.2116 4.87155 15.5685 4.86035C15.6522 4.85769 15.7393 4.84492 15.9132 4.82031C16.2422 4.77377 16.4071 4.75058 16.549 4.75684C17.1636 4.78403 17.7022 5.17584 17.9181 5.75195C17.9679 5.88495 17.9974 6.04878 18.0548 6.37598C18.0852 6.54929 18.0998 6.63629 18.1232 6.7168C18.2228 7.05966 18.4392 7.35687 18.7345 7.55762C18.8038 7.60475 18.8818 7.64604 19.0372 7.72852C19.3308 7.88427 19.4779 7.96231 19.589 8.05078C20.0703 8.43414 20.2757 9.06808 20.1115 9.66113C20.0735 9.79801 20.0005 9.94756 19.8546 10.2461C19.7776 10.4037 19.7394 10.4828 19.7111 10.5615C19.5901 10.8975 19.5901 11.2655 19.7111 11.6016C19.7395 11.6804 19.7773 11.7599 19.8546 11.918C20.0003 12.2161 20.0735 12.3652 20.1115 12.502C20.2757 13.0951 20.0705 13.7299 19.589 14.1133C19.4779 14.2017 19.3306 14.2789 19.0372 14.4346C18.8818 14.517 18.8038 14.5584 18.7345 14.6055C18.4391 14.8062 18.2228 15.1043 18.1232 15.4473C18.0999 15.5276 18.0851 15.6143 18.0548 15.7871C17.9974 16.1144 17.9679 16.2781 17.9181 16.4111C17.7023 16.9874 17.1637 17.379 16.549 17.4062C16.407 17.4125 16.2423 17.3893 15.9132 17.3428C15.7393 17.3182 15.6521 17.3064 15.5685 17.3037C15.2115 17.2925 14.8614 17.4061 14.5792 17.625C14.513 17.6763 14.4496 17.7372 14.3234 17.8594C14.0848 18.0902 13.9651 18.2058 13.8468 18.2842C13.3334 18.6237 12.6668 18.6237 12.1534 18.2842C12.035 18.2058 11.9157 18.0904 11.6769 17.8594C11.5507 17.7373 11.4871 17.6763 11.421 17.625C11.1388 17.4061 10.7887 17.2925 10.4318 17.3037C10.348 17.3063 10.2609 17.3182 10.087 17.3428C9.75812 17.3893 9.59316 17.4125 9.45129 17.4062C8.83642 17.3792 8.29696 16.9875 8.08118 16.4111C8.03143 16.2782 8.00282 16.1142 7.94543 15.7871C7.9151 15.6142 7.89943 15.5277 7.8761 15.4473C7.77645 15.1043 7.56013 14.8062 7.26477 14.6055C7.19555 14.5585 7.11807 14.5168 6.96301 14.4346C6.66969 14.2789 6.52235 14.2017 6.41125 14.1133C5.92974 13.7299 5.72358 13.0951 5.88782 12.502C5.92574 12.3652 5.99894 12.2161 6.14465 11.918C6.22193 11.7599 6.26079 11.6805 6.28918 11.6016C6.4101 11.2656 6.41013 10.8975 6.28918 10.5615C6.2608 10.4828 6.22179 10.4039 6.14465 10.2461C5.99871 9.94754 5.92572 9.79802 5.88782 9.66113C5.72364 9.06801 5.92977 8.4341 6.41125 8.05078C6.52238 7.96233 6.66949 7.88425 6.96301 7.72852C7.1181 7.64623 7.19552 7.60467 7.26477 7.55762C7.5601 7.35689 7.77643 7.05968 7.8761 6.7168C7.89949 6.63628 7.91503 6.5493 7.94543 6.37598C8.00282 6.04883 8.03139 5.88494 8.08118 5.75195C8.29701 5.17567 8.8365 4.78393 9.45129 4.75684C9.59315 4.75061 9.75814 4.77379 10.087 4.82031C10.261 4.84492 10.348 4.85772 10.4318 4.86035C10.7887 4.87154 11.1388 4.75793 11.421 4.53906C11.4872 4.4877 11.5505 4.42596 11.6769 4.30371C11.9155 4.07283 12.035 3.95722 12.1534 3.87891Z"/>
</mask>
<path d="M12.9991 1.87207V1.82411H12.9991L12.9991 1.87207ZM22.2091 11.0811L22.2571 11.0823V11.0811L22.2091 11.0811ZM22.1964 11.5557L22.2443 11.5581L22.2444 11.5569L22.1964 11.5557ZM12.9991 20.291L12.9979 20.339H12.9991V20.291ZM12.5255 20.2783L12.5231 20.3262L12.5242 20.3263L12.5255 20.2783ZM3.79016 11.0811L3.7422 11.0811V11.0811H3.79016ZM12.9991 2.63965V2.59168H12.9991L12.9991 2.63965ZM4.55774 11.0811L4.50977 11.0811V11.0811H4.55774ZM12.9991 19.5234L12.9991 19.5714H12.9991V19.5234ZM21.4415 11.0811H21.4895V11.0811L21.4415 11.0811ZM12.1534 3.87891L12.127 3.83889L12.127 3.8389L12.1534 3.87891ZM13.8468 3.87891L13.8733 3.8389L13.8733 3.8389L13.8468 3.87891ZM14.3234 4.30371L14.3567 4.26924L14.3234 4.30371ZM14.5792 4.53906L14.5498 4.57696L14.5498 4.57697L14.5792 4.53906ZM15.5685 4.86035L15.57 4.90829L15.57 4.90829L15.5685 4.86035ZM15.9132 4.82031L15.9065 4.77282L15.9132 4.82031ZM16.549 4.75684L16.5511 4.70892L16.5511 4.70892L16.549 4.75684ZM17.9181 5.75195L17.963 5.73514L17.963 5.73512L17.9181 5.75195ZM18.0548 6.37598L18.1021 6.36769L18.0548 6.37598ZM18.1232 6.7168L18.0771 6.73018L18.0771 6.73018L18.1232 6.7168ZM18.7345 7.55762L18.7075 7.59728L18.7075 7.59729L18.7345 7.55762ZM19.0372 7.72852L19.0597 7.68614L19.0372 7.72852ZM19.589 8.05078L19.6189 8.01326L19.6189 8.01326L19.589 8.05078ZM20.1115 9.66113L20.1577 9.67393L20.1577 9.67393L20.1115 9.66113ZM19.8546 10.2461L19.8115 10.225V10.225L19.8546 10.2461ZM19.7111 10.5615L19.6659 10.5453L19.6659 10.5453L19.7111 10.5615ZM19.7111 11.6016L19.6659 11.6178V11.6178L19.7111 11.6016ZM19.8546 11.918L19.8977 11.8969L19.8546 11.918ZM20.1115 12.502L20.1577 12.4892L20.1577 12.4891L20.1115 12.502ZM19.589 14.1133L19.6189 14.1508V14.1508L19.589 14.1133ZM19.0372 14.4346L19.0597 14.4769L19.0372 14.4346ZM18.7345 14.6055L18.7075 14.5658L18.7075 14.5658L18.7345 14.6055ZM18.1232 15.4473L18.0771 15.4339L18.0771 15.4339L18.1232 15.4473ZM18.0548 15.7871L18.0076 15.7788L18.0548 15.7871ZM17.9181 16.4111L17.963 16.4279L17.963 16.4279L17.9181 16.4111ZM16.549 17.4062L16.5511 17.4542H16.5511L16.549 17.4062ZM15.9132 17.3428L15.9199 17.2953L15.9132 17.3428ZM15.5685 17.3037L15.57 17.2558H15.57L15.5685 17.3037ZM14.5792 17.625L14.5498 17.5871L14.5498 17.5871L14.5792 17.625ZM14.3234 17.8594L14.29 17.8249L14.3234 17.8594ZM13.8468 18.2842L13.8733 18.3242L13.8733 18.3242L13.8468 18.2842ZM12.1534 18.2842L12.127 18.3242L12.127 18.3242L12.1534 18.2842ZM11.6769 17.8594L11.6435 17.8938L11.6769 17.8594ZM11.421 17.625L11.4504 17.5871L11.4504 17.5871L11.421 17.625ZM10.4318 17.3037L10.4303 17.2558H10.4303L10.4318 17.3037ZM10.087 17.3428L10.0803 17.2953V17.2953L10.087 17.3428ZM9.45129 17.4062L9.44918 17.4542L9.44919 17.4542L9.45129 17.4062ZM8.08118 16.4111L8.03625 16.4279L8.03626 16.4279L8.08118 16.4111ZM7.94543 15.7871L7.99268 15.7788V15.7788L7.94543 15.7871ZM7.8761 15.4473L7.92216 15.4339L7.92216 15.4339L7.8761 15.4473ZM7.26477 14.6055L7.29173 14.5658L7.29171 14.5658L7.26477 14.6055ZM6.96301 14.4346L6.98549 14.3922L6.96301 14.4346ZM6.41125 14.1133L6.38138 14.1508L6.38139 14.1508L6.41125 14.1133ZM5.88782 12.502L5.8416 12.4891L5.84159 12.4892L5.88782 12.502ZM6.14465 11.918L6.10156 11.8969L6.14465 11.918ZM6.28918 11.6016L6.33431 11.6178L6.33432 11.6178L6.28918 11.6016ZM6.28918 10.5615L6.33431 10.5453L6.33431 10.5453L6.28918 10.5615ZM6.14465 10.2461L6.18775 10.225L6.14465 10.2461ZM5.88782 9.66113L5.84159 9.67393L5.84159 9.67393L5.88782 9.66113ZM6.41125 8.05078L6.38138 8.01325L6.38138 8.01326L6.41125 8.05078ZM6.96301 7.72852L6.98549 7.77089V7.77089L6.96301 7.72852ZM7.26477 7.55762L7.29173 7.59729L7.29173 7.59729L7.26477 7.55762ZM7.8761 6.7168L7.92216 6.73018L7.92216 6.73018L7.8761 6.7168ZM7.94543 6.37598L7.89819 6.36769L7.94543 6.37598ZM8.08118 5.75195L8.03626 5.73513L8.03626 5.73514L8.08118 5.75195ZM9.45129 4.75684L9.44919 4.70892L9.44918 4.70892L9.45129 4.75684ZM10.087 4.82031L10.0803 4.86781V4.86781L10.087 4.82031ZM10.4318 4.86035L10.4303 4.90829H10.4303L10.4318 4.86035ZM11.421 4.53906L11.4504 4.57696L11.4504 4.57696L11.421 4.53906ZM11.6769 4.30371L11.6435 4.26924L11.6769 4.30371ZM12.9991 1.87207V1.92004C18.0586 1.92004 22.1607 6.02174 22.1611 11.0811L22.2091 11.0811L22.2571 11.0811C22.2567 5.96875 18.1115 1.82411 12.9991 1.82411V1.87207ZM22.2091 11.0811L22.1612 11.0798L22.1485 11.5544L22.1964 11.5557L22.2444 11.5569L22.2571 11.0823L22.2091 11.0811ZM22.1964 11.5557L22.1485 11.5532C21.9029 16.3936 17.9005 20.243 12.9991 20.243V20.291V20.339C17.9519 20.339 21.9962 16.4492 22.2443 11.5581L22.1964 11.5557ZM12.9991 20.291L13.0004 20.2431L12.5268 20.2304L12.5255 20.2783L12.5242 20.3263L12.9979 20.339L12.9991 20.291ZM12.5255 20.2783L12.5279 20.2304C7.68765 19.9848 3.83813 15.9824 3.83813 11.0811H3.79016H3.7422C3.7422 16.0338 7.63203 20.078 12.5231 20.3262L12.5255 20.2783ZM3.79016 11.0811L3.83813 11.0811C3.83853 6.02198 7.94007 1.92044 12.9991 1.92004L12.9991 1.87207L12.9991 1.82411C7.88709 1.82451 3.7426 5.969 3.7422 11.0811L3.79016 11.0811ZM12.9991 2.63965L12.9991 2.59168C8.31094 2.59209 4.51018 6.39285 4.50977 11.0811L4.55774 11.0811L4.6057 11.0811C4.60611 6.44583 8.36392 2.68802 12.9991 2.68761L12.9991 2.63965ZM4.55774 11.0811H4.50977C4.50977 15.7696 8.31069 19.571 12.9991 19.5714L12.9991 19.5234L12.9991 19.4755C8.36367 19.4751 4.6057 15.7166 4.6057 11.0811H4.55774ZM12.9991 19.5234V19.5714C17.6879 19.5714 21.4895 15.7699 21.4895 11.0811H21.4415H21.3936C21.3936 15.7169 17.635 19.4755 12.9991 19.4755V19.5234ZM21.4415 11.0811L21.4895 11.0811C21.4891 6.39259 17.6877 2.59168 12.9991 2.59168V2.63965V2.68761C17.6347 2.68761 21.3932 6.44558 21.3936 11.0811L21.4415 11.0811ZM12.1534 3.87891L12.1799 3.91892C12.6772 3.59013 13.3231 3.59007 13.8203 3.91891L13.8468 3.87891L13.8733 3.8389C13.3439 3.48883 12.6564 3.4889 12.127 3.83889L12.1534 3.87891ZM13.8468 3.87891L13.8203 3.91891C13.9341 3.99419 14.0498 4.10578 14.29 4.33818L14.3234 4.30371L14.3567 4.26924C14.1195 4.0398 13.9963 3.9203 13.8733 3.8389L13.8468 3.87891ZM14.3234 4.30371L14.29 4.33818C14.4156 4.45966 14.481 4.52357 14.5498 4.57696L14.5792 4.53906L14.6086 4.50116C14.545 4.45178 14.4841 4.39246 14.3567 4.26924L14.3234 4.30371ZM14.5792 4.53906L14.5498 4.57697C14.8408 4.80262 15.2019 4.91984 15.57 4.90829L15.5685 4.86035L15.567 4.81241C15.2212 4.82326 14.882 4.71313 14.6086 4.50116L14.5792 4.53906ZM15.5685 4.86035L15.57 4.90829C15.657 4.90553 15.7472 4.89223 15.9199 4.86781L15.9132 4.82031L15.9065 4.77282C15.7313 4.7976 15.6474 4.80986 15.567 4.81241L15.5685 4.86035ZM15.9132 4.82031L15.9199 4.86781C16.251 4.82097 16.4105 4.79874 16.5468 4.80475L16.549 4.75684L16.5511 4.70892C16.4036 4.70242 16.2334 4.72658 15.9065 4.77282L15.9132 4.82031ZM16.549 4.75684L16.5468 4.80475C17.1422 4.8311 17.6641 5.21065 17.8732 5.76878L17.9181 5.75195L17.963 5.73512C17.7404 5.14104 17.1849 4.73696 16.5511 4.70892L16.549 4.75684ZM17.9181 5.75195L17.8732 5.76877C17.921 5.89661 17.9498 6.05516 18.0076 6.38426L18.0548 6.37598L18.1021 6.36769C18.045 6.0424 18.0147 5.87329 17.963 5.73514L17.9181 5.75195ZM18.0548 6.37598L18.0076 6.38426C18.0377 6.55619 18.0528 6.6465 18.0771 6.73018L18.1232 6.7168L18.1692 6.70341C18.1468 6.62608 18.1327 6.54238 18.1021 6.36769L18.0548 6.37598ZM18.1232 6.7168L18.0771 6.73018C18.1799 7.0838 18.4031 7.39029 18.7075 7.59728L18.7345 7.55762L18.7615 7.51795C18.4754 7.32346 18.2657 7.03552 18.1692 6.70341L18.1232 6.7168ZM18.7345 7.55762L18.7075 7.59729C18.7796 7.64624 18.8603 7.68893 19.0148 7.77089L19.0372 7.72852L19.0597 7.68614C18.9033 7.60316 18.8281 7.56326 18.7615 7.51795L18.7345 7.55762ZM19.0372 7.72852L19.0148 7.77089C19.3102 7.92764 19.4523 8.0033 19.5591 8.08831L19.589 8.05078L19.6189 8.01326C19.5034 7.92133 19.3514 7.8409 19.0597 7.68614L19.0372 7.72852ZM19.589 8.05078L19.5591 8.0883C20.0254 8.45965 20.2243 9.07377 20.0652 9.64833L20.1115 9.66113L20.1577 9.67393C20.327 9.06238 20.1153 8.40862 19.6189 8.01326L19.589 8.05078ZM20.1115 9.66113L20.0652 9.64833C20.0288 9.77987 19.9584 9.9246 19.8115 10.225L19.8546 10.2461L19.8977 10.2672C20.0427 9.97052 20.1183 9.81616 20.1577 9.67393L20.1115 9.66113ZM19.8546 10.2461L19.8115 10.225C19.7349 10.3818 19.6954 10.4636 19.6659 10.5453L19.7111 10.5615L19.7562 10.5778C19.7835 10.5021 19.8203 10.4255 19.8977 10.2672L19.8546 10.2461ZM19.7111 10.5615L19.6659 10.5453C19.5412 10.8918 19.5412 11.2713 19.6659 11.6178L19.7111 11.6016L19.7562 11.5853C19.639 11.2598 19.639 10.9033 19.7562 10.5778L19.7111 10.5615ZM19.7111 11.6016L19.6659 11.6178C19.6954 11.6996 19.7345 11.7816 19.8115 11.939L19.8546 11.918L19.8977 11.8969C19.8201 11.7382 19.7835 11.6613 19.7562 11.5853L19.7111 11.6016ZM19.8546 11.918L19.8115 11.939C19.9582 12.2391 20.0288 12.3834 20.0652 12.5148L20.1115 12.502L20.1577 12.4891C20.1182 12.347 20.0425 12.1931 19.8977 11.8969L19.8546 11.918ZM20.1115 12.502L20.0652 12.5148C20.2243 13.0894 20.0255 13.7044 19.5591 14.0758L19.589 14.1133L19.6189 14.1508C20.1155 13.7554 20.327 13.1008 20.1577 12.4892L20.1115 12.502ZM19.589 14.1133L19.5591 14.0758C19.4524 14.1607 19.3102 14.2354 19.0148 14.3922L19.0372 14.4346L19.0597 14.4769C19.351 14.3224 19.5034 14.2427 19.6189 14.1508L19.589 14.1133ZM19.0372 14.4346L19.0148 14.3922C18.8603 14.4741 18.7795 14.5169 18.7075 14.5658L18.7345 14.6055L18.7615 14.6451C18.8281 14.5998 18.9033 14.5599 19.0597 14.4769L19.0372 14.4346ZM18.7345 14.6055L18.7075 14.5658C18.4029 14.7728 18.1799 15.0802 18.0771 15.4339L18.1232 15.4473L18.1692 15.4606C18.2658 15.1284 18.4753 14.8396 18.7615 14.6451L18.7345 14.6055ZM18.1232 15.4473L18.0771 15.4339C18.0529 15.5174 18.0377 15.6073 18.0076 15.7788L18.0548 15.7871L18.1021 15.7954C18.1326 15.6213 18.1468 15.5378 18.1692 15.4606L18.1232 15.4473ZM18.0548 15.7871L18.0076 15.7788C17.9498 16.108 17.921 16.2665 17.8732 16.3943L17.9181 16.4111L17.963 16.4279C18.0147 16.2898 18.045 16.1208 18.1021 15.7954L18.0548 15.7871ZM17.9181 16.4111L17.8732 16.3943C17.6642 16.9526 17.1424 17.332 16.5468 17.3583L16.549 17.4062L16.5511 17.4542C17.185 17.4261 17.7405 17.0223 17.963 16.4279L17.9181 16.4111ZM16.549 17.4062L16.5468 17.3583C16.4105 17.3643 16.2511 17.3421 15.9199 17.2953L15.9132 17.3428L15.9065 17.3903C16.2334 17.4365 16.4036 17.4607 16.5511 17.4542L16.549 17.4062ZM15.9132 17.3428L15.9199 17.2953C15.7468 17.2708 15.6568 17.2585 15.57 17.2558L15.5685 17.3037L15.567 17.3517C15.6475 17.3542 15.7318 17.3656 15.9065 17.3903L15.9132 17.3428ZM15.5685 17.3037L15.57 17.2558C15.2019 17.2442 14.8408 17.3614 14.5498 17.5871L14.5792 17.625L14.6086 17.6629C14.882 17.4509 15.2212 17.3408 15.567 17.3517L15.5685 17.3037ZM14.5792 17.625L14.5498 17.5871C14.4811 17.6404 14.4156 17.7034 14.29 17.8249L14.3234 17.8594L14.3567 17.8938C14.4836 17.7711 14.545 17.7123 14.6086 17.6629L14.5792 17.625ZM14.3234 17.8594L14.29 17.8249C14.0499 18.0572 13.9341 18.1689 13.8203 18.2442L13.8468 18.2842L13.8733 18.3242C13.9962 18.2428 14.1197 18.1232 14.3567 17.8938L14.3234 17.8594ZM13.8468 18.2842L13.8203 18.2442C13.323 18.5731 12.6772 18.5731 12.1799 18.2442L12.1534 18.2842L12.127 18.3242C12.6564 18.6743 13.3438 18.6743 13.8733 18.3242L13.8468 18.2842ZM12.1534 18.2842L12.1799 18.2442C12.0661 18.1689 11.9505 18.0574 11.7102 17.8249L11.6769 17.8594L11.6435 17.8938C11.8808 18.1234 12.0039 18.2428 12.127 18.3242L12.1534 18.2842ZM11.6769 17.8594L11.7102 17.8249C11.5846 17.7034 11.5191 17.6404 11.4504 17.5871L11.421 17.625L11.3916 17.6629C11.4552 17.7123 11.5167 17.7711 11.6435 17.8938L11.6769 17.8594ZM11.421 17.625L11.4504 17.5871C11.1594 17.3614 10.7983 17.2442 10.4303 17.2558L10.4318 17.3037L10.4333 17.3517C10.7791 17.3408 11.1183 17.4509 11.3916 17.6629L11.421 17.625ZM10.4318 17.3037L10.4303 17.2558C10.3434 17.2585 10.2534 17.2708 10.0803 17.2953L10.087 17.3428L10.0938 17.3903C10.2685 17.3656 10.3527 17.3542 10.4333 17.3517L10.4318 17.3037ZM10.087 17.3428L10.0803 17.2953C9.74932 17.3421 9.58973 17.3643 9.4534 17.3583L9.45129 17.4062L9.44919 17.4542C9.59659 17.4606 9.76691 17.4365 10.0938 17.3903L10.087 17.3428ZM9.45129 17.4062L9.45341 17.3583C8.85773 17.3321 8.33513 16.9527 8.1261 16.3943L8.08118 16.4111L8.03626 16.4279C8.25879 17.0224 8.81511 17.4262 9.44918 17.4542L9.45129 17.4062ZM8.08118 16.4111L8.1261 16.3943C8.0783 16.2665 8.05044 16.1081 7.99268 15.7788L7.94543 15.7871L7.89819 15.7954C7.9552 16.1204 7.98456 16.2898 8.03625 16.4279L8.08118 16.4111ZM7.94543 15.7871L7.99268 15.7788C7.96249 15.6067 7.94638 15.5173 7.92216 15.4339L7.8761 15.4473L7.83003 15.4606C7.85249 15.538 7.86771 15.6216 7.89819 15.7954L7.94543 15.7871ZM7.8761 15.4473L7.92216 15.4339C7.8194 15.0802 7.59634 14.7728 7.29173 14.5658L7.26477 14.6055L7.23781 14.6451C7.52392 14.8396 7.7335 15.1284 7.83004 15.4606L7.8761 15.4473ZM7.26477 14.6055L7.29171 14.5658C7.21987 14.517 7.1398 14.4741 6.98549 14.3922L6.96301 14.4346L6.94053 14.4769C7.09633 14.5596 7.17123 14.5999 7.23783 14.6452L7.26477 14.6055ZM6.96301 14.4346L6.98549 14.3922C6.6901 14.2355 6.54784 14.1607 6.44112 14.0757L6.41125 14.1133L6.38139 14.1508C6.49686 14.2427 6.64927 14.3224 6.94053 14.4769L6.96301 14.4346ZM6.41125 14.1133L6.44113 14.0758C5.97467 13.7044 5.77494 13.0894 5.93404 12.5148L5.88782 12.502L5.84159 12.4892C5.67223 13.1008 5.88481 13.7555 6.38138 14.1508L6.41125 14.1133ZM5.88782 12.502L5.93404 12.5148C5.97047 12.3834 6.04106 12.2391 6.18775 11.939L6.14465 11.918L6.10156 11.8969C5.95681 12.193 5.881 12.347 5.8416 12.4891L5.88782 12.502ZM6.14465 11.918L6.18775 11.939C6.26455 11.7819 6.30482 11.6997 6.33431 11.6178L6.28918 11.6016L6.24405 11.5853C6.21675 11.6612 6.17932 11.7378 6.10156 11.8969L6.14465 11.918ZM6.28918 11.6016L6.33432 11.6178C6.45901 11.2713 6.45904 10.8918 6.33431 10.5453L6.28918 10.5615L6.24405 10.5778C6.36122 10.9032 6.36119 11.2598 6.24405 11.5853L6.28918 11.6016ZM6.28918 10.5615L6.33431 10.5453C6.30482 10.4634 6.26433 10.3817 6.18775 10.225L6.14465 10.2461L6.10156 10.2672C6.17925 10.4261 6.21679 10.5021 6.24406 10.5778L6.28918 10.5615ZM6.14465 10.2461L6.18775 10.225C6.04087 9.92457 5.97047 9.77988 5.93404 9.64833L5.88782 9.66113L5.84159 9.67393C5.88097 9.81617 5.95655 9.9705 6.10156 10.2672L6.14465 10.2461ZM5.88782 9.66113L5.93404 9.64834C5.77499 9.07376 5.97468 8.45965 6.44113 8.08831L6.41125 8.05078L6.38138 8.01326C5.88485 8.40855 5.67228 9.06226 5.84159 9.67393L5.88782 9.66113ZM6.41125 8.05078L6.44113 8.08831C6.54791 8.00331 6.69009 7.92762 6.98549 7.77089L6.96301 7.72852L6.94053 7.68614C6.64889 7.84088 6.49685 7.92134 6.38138 8.01325L6.41125 8.05078ZM6.96301 7.72852L6.98549 7.77089C7.13982 7.689 7.21985 7.64613 7.29173 7.59729L7.26477 7.55762L7.23782 7.51794C7.17119 7.56321 7.09638 7.60345 6.94053 7.68614L6.96301 7.72852ZM7.26477 7.55762L7.29173 7.59729C7.59626 7.39031 7.81937 7.08382 7.92216 6.73018L7.8761 6.7168L7.83004 6.70341C7.7335 7.03555 7.52393 7.32348 7.23781 7.51795L7.26477 7.55762ZM7.8761 6.7168L7.92216 6.73018C7.94645 6.64659 7.96244 6.55666 7.99268 6.38426L7.94543 6.37598L7.89819 6.36769C7.86762 6.54194 7.85254 6.62598 7.83004 6.70341L7.8761 6.7168ZM7.94543 6.37598L7.99268 6.38426C8.05044 6.05497 8.07826 5.89655 8.1261 5.76877L8.08118 5.75195L8.03626 5.73514C7.98452 5.87334 7.9552 6.04269 7.89819 6.36769L7.94543 6.37598ZM8.08118 5.75195L8.12609 5.76878C8.33518 5.21051 8.85781 4.831 9.45341 4.80475L9.45129 4.75684L9.44918 4.70892C8.81518 4.73686 8.25884 5.14083 8.03626 5.73513L8.08118 5.75195ZM9.45129 4.75684L9.4534 4.80475C9.58972 4.79877 9.74934 4.82099 10.0803 4.86781L10.087 4.82031L10.0938 4.77282C9.76693 4.72659 9.59659 4.70245 9.44919 4.70892L9.45129 4.75684ZM10.087 4.82031L10.0803 4.86781C10.253 4.89223 10.3432 4.90556 10.4303 4.90829L10.4318 4.86035L10.4333 4.81241C10.3528 4.80989 10.269 4.79761 10.0938 4.77282L10.087 4.82031ZM10.4318 4.86035L10.4303 4.90829C10.7983 4.91983 11.1594 4.80267 11.4504 4.57696L11.421 4.53906L11.3916 4.50116C11.1183 4.71318 10.7791 4.82325 10.4333 4.81241L10.4318 4.86035ZM11.421 4.53906L11.4504 4.57696C11.5192 4.52359 11.5848 4.45957 11.7102 4.33818L11.6769 4.30371L11.6435 4.26924C11.5163 4.39235 11.4552 4.45181 11.3916 4.50117L11.421 4.53906ZM11.6769 4.30371L11.7102 4.33818C11.9504 4.10582 12.0661 3.99417 12.1799 3.91891L12.1534 3.87891L12.127 3.8389C12.0039 3.92028 11.8806 4.03985 11.6435 4.26924L11.6769 4.30371Z" fill="url(#paint9_linear_271_579)" mask="url(#path-17-inside-1_271_579)"/>
</g>
</g>
</g>
<g filter="url(#filter4_d_271_579)">
<mask id="path-19-outside-2_271_579" maskUnits="userSpaceOnUse" x="11.3256" y="6.51758" width="3" height="8" fill="black">
<rect fill="white" x="11.3256" y="6.51758" width="3" height="8"/>
<path d="M11.5174 8.25907V6.79479H14.0684V13.5176H12.4291V8.25907H11.5174Z"/>
</mask>
<path d="M11.5174 8.25907V6.79479H14.0684V13.5176H12.4291V8.25907H11.5174Z" fill="white"/>
<path d="M11.5174 8.25907H11.4694V8.30703H11.5174V8.25907ZM11.5174 6.79479V6.74682H11.4694V6.79479H11.5174ZM14.0684 6.79479H14.1163V6.74682H14.0684V6.79479ZM14.0684 13.5176V13.5655H14.1163V13.5176H14.0684ZM12.4291 13.5176H12.3811V13.5655H12.4291V13.5176ZM12.4291 8.25907H12.4771V8.2111H12.4291V8.25907ZM11.5174 8.25907H11.5654V6.79479H11.5174H11.4694V8.25907H11.5174ZM11.5174 6.79479V6.84275H14.0684V6.79479V6.74682H11.5174V6.79479ZM14.0684 6.79479H14.0204V13.5176H14.0684H14.1163V6.79479H14.0684ZM14.0684 13.5176V13.4696H12.4291V13.5176V13.5655H14.0684V13.5176ZM12.4291 13.5176H12.4771V8.25907H12.4291H12.3811V13.5176H12.4291ZM12.4291 8.25907V8.2111H11.5174V8.25907V8.30703H12.4291V8.25907Z" fill="url(#paint10_linear_271_579)" style="mix-blend-mode:color-burn" mask="url(#path-19-outside-2_271_579)"/>
</g>
<defs>
<filter id="filter0_d_271_579" x="8.34587" y="18.4189" width="10.1686" height="9.15298" filterUnits="userSpaceOnUse" color-interpolation-filters="sRGB">
<feFlood flood-opacity="0" result="BackgroundImageFix"/>
<feColorMatrix in="SourceAlpha" type="matrix" values="0 0 0 0 0 0 0 0 0 0 0 0 0 0 0 0 0 0 127 0" result="hardAlpha"/>
<feOffset dy="0.959302"/>
<feGaussianBlur stdDeviation="0.479651"/>
<feColorMatrix type="matrix" values="0 0 0 0 0 0 0 0 0 0 0 0 0 0 0 0 0 0 0.2 0"/>
<feBlend mode="normal" in2="BackgroundImageFix" result="effect1_dropShadow_271_579"/>
<feBlend mode="normal" in="SourceGraphic" in2="effect1_dropShadow_271_579" result="shape"/>
</filter>
<filter id="filter1_d_271_579" x="8.34587" y="18.4189" width="10.1686" height="9.15298" filterUnits="userSpaceOnUse" color-interpolation-filters="sRGB">
<feFlood flood-opacity="0" result="BackgroundImageFix"/>
<feColorMatrix in="SourceAlpha" type="matrix" values="0 0 0 0 0 0 0 0 0 0 0 0 0 0 0 0 0 0 127 0" result="hardAlpha"/>
<feOffset dy="0.959302"/>
<feGaussianBlur stdDeviation="0.479651"/>
<feColorMatrix type="matrix" values="0 0 0 0 0 0 0 0 0 0 0 0 0 0 0 0 0 0 0.2 0"/>
<feBlend mode="normal" in2="BackgroundImageFix" result="effect1_dropShadow_271_579"/>
<feBlend mode="normal" in="SourceGraphic" in2="effect1_dropShadow_271_579" result="shape"/>
</filter>
<filter id="filter2_dddd_271_579" x="0.624952" y="1.29649" width="24.75" height="30.0265" filterUnits="userSpaceOnUse" color-interpolation-filters="sRGB">
<feFlood flood-opacity="0" result="BackgroundImageFix"/>
<feColorMatrix in="SourceAlpha" type="matrix" values="0 0 0 0 0 0 0 0 0 0 0 0 0 0 0 0 0 0 127 0" result="hardAlpha"/>
<feOffset dy="0.479651"/>
<feGaussianBlur stdDeviation="0.527616"/>
<feColorMatrix type="matrix" values="0 0 0 0 0 0 0 0 0 0 0 0 0 0 0 0 0 0 0.24 0"/>
<feBlend mode="normal" in2="BackgroundImageFix" result="effect1_dropShadow_271_579"/>
<feColorMatrix in="SourceAlpha" type="matrix" values="0 0 0 0 0 0 0 0 0 0 0 0 0 0 0 0 0 0 127 0" result="hardAlpha"/>
<feOffset dy="2.01453"/>
<feGaussianBlur stdDeviation="1.00727"/>
<feColorMatrix type="matrix" values="0 0 0 0 0 0 0 0 0 0 0 0 0 0 0 0 0 0 0.21 0"/>
<feBlend mode="normal" in2="effect1_dropShadow_271_579" result="effect2_dropShadow_271_579"/>
<feColorMatrix in="SourceAlpha" type="matrix" values="0 0 0 0 0 0 0 0 0 0 0 0 0 0 0 0 0 0 127 0" result="hardAlpha"/>
<feOffset dy="4.41279"/>
<feGaussianBlur stdDeviation="1.34302"/>
<feColorMatrix type="matrix" values="0 0 0 0 0 0 0 0 0 0 0 0 0 0 0 0 0 0 0.12 0"/>
<feBlend mode="normal" in2="effect2_dropShadow_271_579" result="effect3_dropShadow_271_579"/>
<feColorMatrix in="SourceAlpha" type="matrix" values="0 0 0 0 0 0 0 0 0 0 0 0 0 0 0 0 0 0 127 0" result="hardAlpha"/>
<feOffset dy="7.86628"/>
<feGaussianBlur stdDeviation="1.58285"/>
<feColorMatrix type="matrix" values="0 0 0 0 0 0 0 0 0 0 0 0 0 0 0 0 0 0 0.04 0"/>
<feBlend mode="normal" in2="effect3_dropShadow_271_579" result="effect4_dropShadow_271_579"/>
<feBlend mode="normal" in="SourceGraphic" in2="effect4_dropShadow_271_579" result="shape"/>
</filter>
<filter id="filter3_d_271_579" x="3.02272" y="1.29649" width="19.9538" height="19.9538" filterUnits="userSpaceOnUse" color-interpolation-filters="sRGB">
<feFlood flood-opacity="0" result="BackgroundImageFix"/>
<feColorMatrix in="SourceAlpha" type="matrix" values="0 0 0 0 0 0 0 0 0 0 0 0 0 0 0 0 0 0 127 0" result="hardAlpha"/>
<feOffset dy="0.19186"/>
<feGaussianBlur stdDeviation="0.383721"/>
<feColorMatrix type="matrix" values="0 0 0 0 0 0 0 0 0 0 0 0 0 0 0 0 0 0 0.16 0"/>
<feBlend mode="color-burn" in2="BackgroundImageFix" result="effect1_dropShadow_271_579"/>
<feBlend mode="normal" in="SourceGraphic" in2="effect1_dropShadow_271_579" result="shape"/>
</filter>
<filter id="filter4_d_271_579" x="10.3183" y="5.78777" width="4.94918" height="9.12069" filterUnits="userSpaceOnUse" color-interpolation-filters="sRGB">
<feFlood flood-opacity="0" result="BackgroundImageFix"/>
<feColorMatrix in="SourceAlpha" type="matrix" values="0 0 0 0 0 0 0 0 0 0 0 0 0 0 0 0 0 0 127 0" result="hardAlpha"/>
<feOffset dy="0.19186"/>
<feGaussianBlur stdDeviation="0.575581"/>
<feColorMatrix type="matrix" values="0 0 0 0 0 0 0 0 0 0 0 0 0 0 0 0 0 0 0.12 0"/>
<feBlend mode="plus-darker" in2="BackgroundImageFix" result="effect1_dropShadow_271_579"/>
<feBlend mode="normal" in="SourceGraphic" in2="effect1_dropShadow_271_579" result="shape"/>
</filter>
<linearGradient id="paint0_linear_271_579" x1="13.4302" y1="14.5817" x2="13.4302" y2="26.0934" gradientUnits="userSpaceOnUse">
<stop stop-color="white"/>
<stop offset="1" stop-color="white" stop-opacity="0"/>
</linearGradient>
<radialGradient id="paint1_radial_271_579" cx="0" cy="0" r="1" gradientUnits="userSpaceOnUse" gradientTransform="translate(13.4302 18.4189) rotate(90) scale(7.67442)">
<stop stop-color="white"/>
<stop offset="1" stop-color="white" stop-opacity="0"/>
</radialGradient>
<linearGradient id="paint2_linear_271_579" x1="13.4302" y1="14.582" x2="13.4302" y2="26.0937" gradientUnits="userSpaceOnUse">
<stop stop-color="white"/>
<stop offset="1" stop-color="#999999"/>
</linearGradient>
<linearGradient id="paint3_linear_271_579" x1="12.9999" y1="0.695083" x2="12.9999" y2="21.3289" gradientUnits="userSpaceOnUse">
<stop stop-color="white"/>
<stop offset="1" stop-color="white" stop-opacity="0"/>
</linearGradient>
<radialGradient id="paint4_radial_271_579" cx="0" cy="0" r="1" gradientUnits="userSpaceOnUse" gradientTransform="translate(12.9999 6.62181) rotate(90) scale(13.6095 10.3258)">
<stop stop-color="white"/>
<stop offset="1" stop-color="white" stop-opacity="0"/>
</radialGradient>
<linearGradient id="paint5_linear_271_579" x1="12.9999" y1="0.695083" x2="12.9999" y2="21.3289" gradientUnits="userSpaceOnUse">
<stop stop-color="white"/>
<stop offset="1" stop-color="white" stop-opacity="0"/>
</linearGradient>
<radialGradient id="paint6_radial_271_579" cx="0" cy="0" r="1" gradientUnits="userSpaceOnUse" gradientTransform="translate(12.9999 6.62181) rotate(90) scale(13.6095 10.3258)">
<stop stop-color="white"/>
<stop offset="1" stop-color="white" stop-opacity="0"/>
</radialGradient>
<linearGradient id="paint7_linear_271_579" x1="-0.430298" y1="-2.34863" x2="-0.430298" y2="24.5118" gradientUnits="userSpaceOnUse">
<stop offset="0.135095" stop-color="white"/>
<stop offset="0.877908" stop-color="white" stop-opacity="0.01"/>
</linearGradient>
<radialGradient id="paint8_radial_271_579" cx="0" cy="0" r="1" gradientUnits="userSpaceOnUse" gradientTransform="translate(13.4306 11.5127) rotate(90) scale(10.7442)">
<stop offset="0.075" stop-color="white" stop-opacity="0"/>
<stop offset="0.34" stop-color="white"/>
<stop offset="0.705" stop-color="white" stop-opacity="0.01"/>
</radialGradient>
<linearGradient id="paint9_linear_271_579" x1="12.9996" y1="1.87207" x2="12.9996" y2="20.291" gradientUnits="userSpaceOnUse">
<stop stop-color="white"/>
<stop offset="1" stop-color="#999999"/>
</linearGradient>
<linearGradient id="paint10_linear_271_579" x1="13" y1="5.51758" x2="13" y2="14.5176" gradientUnits="userSpaceOnUse">
<stop stop-color="#DFDFDF"/>
<stop offset="1" stop-color="#A9A9A9"/>
</linearGradient>
</defs>
</svg>
