<svg width="40" height="40" viewBox="0 0 40 40" fill="none" xmlns="http://www.w3.org/2000/svg">
<path d="M37.9797 29.0322L33.6066 31.9668V21.792L28.5588 25.2266V31.9678L24.1857 34.9023V28.2021L19.8146 31.1768L15.2736 28.0859V34.9023L10.9015 31.9678V25.1113L6.02263 21.791V31.9668L1.64958 29.0322V5.55469L1.65154 5.55566V5.55469L1.85954 5.69531L6.02263 8.48926V8.51465L19.8146 17.8574L33.6066 8.51562V8.48926L37.9797 5.55469V29.0322ZM15.2736 23.8115L19.8146 26.8877L24.1857 23.9268V19.1729L19.8146 22.1475L15.2736 19.0566V23.8115ZM28.5588 16.1963V20.9639L33.6066 17.5449V12.7617L28.5588 16.1963ZM6.02263 17.5439L10.9015 20.8496V16.0811L6.02263 12.7607V17.5439Z" fill="currentColor"/>
</svg>
