<svg width="22" height="22" viewBox="0 0 22 22" fill="none" xmlns="http://www.w3.org/2000/svg">
<path d="M14.6091 1.80469H7.04738C3.7628 1.80469 1.80469 3.7628 1.80469 7.04738V14.6001C1.80469 17.8937 3.7628 19.8518 7.04738 19.8518H14.6001C17.8847 19.8518 19.8428 17.8937 19.8428 14.6091V7.04738C19.8518 3.7628 17.8937 1.80469 14.6091 1.80469ZM7.64294 9.90785C7.90462 9.64617 8.33775 9.64617 8.59943 9.90785L10.1515 11.4599V5.87432C10.1515 5.50435 10.4583 5.19755 10.8283 5.19755C11.1982 5.19755 11.505 5.50435 11.505 5.87432V11.4599L13.0571 9.90785C13.3188 9.64617 13.7519 9.64617 14.0136 9.90785C14.2753 10.1695 14.2753 10.6027 14.0136 10.8644L11.3065 13.5714C11.2433 13.6346 11.1712 13.6797 11.0899 13.7158C11.0087 13.7519 10.9185 13.7699 10.8283 13.7699C10.738 13.7699 10.6568 13.7519 10.5666 13.7158C10.4854 13.6797 10.4132 13.6346 10.35 13.5714L7.64294 10.8644C7.38125 10.6027 7.38125 10.1786 7.64294 9.90785ZM16.459 15.5386C14.6452 16.1431 12.7413 16.4499 10.8283 16.4499C8.91526 16.4499 7.01129 16.1431 5.19755 15.5386C4.84563 15.4213 4.65614 15.0332 4.77344 14.6813C4.89075 14.3294 5.26974 14.1309 5.63068 14.2572C8.98745 15.3761 12.6781 15.3761 16.0349 14.2572C16.3868 14.1399 16.7748 14.3294 16.8921 14.6813C17.0004 15.0423 16.8109 15.4213 16.459 15.5386Z" fill="white"/>
</svg>
