<svg width="40" height="40" viewBox="0 0 40 40" fill="none" xmlns="http://www.w3.org/2000/svg">
<g clip-path="url(#clip0_538_3135)">
<rect width="40" height="40" rx="8" fill="#008FE9"/>
<path opacity="0.4" d="M27.3 15.9195V21.0695C27.3 24.1495 25.54 25.4695 22.9 25.4695H14.11C13.66 25.4695 13.23 25.4295 12.83 25.3395C12.58 25.2995 12.34 25.2295 12.12 25.1495C10.62 24.5895 9.70996 23.2895 9.70996 21.0695V15.9195C9.70996 12.8395 11.47 11.5195 14.11 11.5195H22.9C25.14 11.5195 26.75 12.4695 27.18 14.6395C27.25 15.0395 27.3 15.4495 27.3 15.9195Z" fill="white"/>
<path d="M30.3 18.9206V24.0706C30.3 27.1506 28.54 28.4706 25.9 28.4706H17.11C16.37 28.4706 15.7 28.3706 15.12 28.1506C13.93 27.7106 13.12 26.8006 12.83 25.3406C13.23 25.4306 13.66 25.4706 14.11 25.4706H22.9C25.54 25.4706 27.3 24.1506 27.3 21.0706V15.9206C27.3 15.4506 27.26 15.0306 27.18 14.6406C29.08 15.0406 30.3 16.3806 30.3 18.9206Z" fill="white"/>
<path d="M18.5 21.1394C19.958 21.1394 21.14 19.9574 21.14 18.4994C21.14 17.0414 19.958 15.8594 18.5 15.8594C17.042 15.8594 15.86 17.0414 15.86 18.4994C15.86 19.9574 17.042 21.1394 18.5 21.1394Z" fill="white"/>
<path d="M12.78 16.25C12.37 16.25 12.03 16.59 12.03 17V20C12.03 20.41 12.37 20.75 12.78 20.75C13.19 20.75 13.53 20.41 13.53 20V17C13.53 16.59 13.2 16.25 12.78 16.25Z" fill="white"/>
<path d="M24.21 16.25C23.8 16.25 23.46 16.59 23.46 17V20C23.46 20.41 23.8 20.75 24.21 20.75C24.62 20.75 24.96 20.41 24.96 20V17C24.96 16.59 24.63 16.25 24.21 16.25Z" fill="white"/>
<g filter="url(#filter0_f_538_3135)">
<circle cx="7.5" cy="7.5" r="6.5" fill="white"/>
</g>
</g>
<defs>
<filter id="filter0_f_538_3135" x="-12" y="-12" width="39" height="39" filterUnits="userSpaceOnUse" color-interpolation-filters="sRGB">
<feFlood flood-opacity="0" result="BackgroundImageFix"/>
<feBlend mode="normal" in="SourceGraphic" in2="BackgroundImageFix" result="shape"/>
<feGaussianBlur stdDeviation="6.5" result="effect1_foregroundBlur_538_3135"/>
</filter>
<clipPath id="clip0_538_3135">
<rect width="40" height="40" rx="8" fill="white"/>
</clipPath>
</defs>
</svg>
