<svg width="22" height="22" viewBox="0 0 22 22" fill="none" xmlns="http://www.w3.org/2000/svg">
<path d="M14.5507 2.66855L6.40988 5.37314C0.937593 7.20325 0.937593 10.1873 6.40988 12.0084L8.82598 12.8108L9.62834 15.2269C11.4494 20.6992 14.4425 20.6992 16.2636 15.2269L18.9772 7.09506C20.1853 3.44387 18.2019 1.45149 14.5507 2.66855ZM14.8392 7.51878L11.4134 10.9626C11.2781 11.0979 11.1068 11.161 10.9356 11.161C10.7643 11.161 10.593 11.0979 10.4577 10.9626C10.1963 10.7012 10.1963 10.2684 10.4577 10.007L13.8836 6.56316C14.145 6.30172 14.5777 6.30172 14.8392 6.56316C15.1006 6.8246 15.1006 7.25734 14.8392 7.51878Z" fill="#008FE9"/>
</svg>
