<svg width="22" height="22" viewBox="0 0 22 22" fill="none" xmlns="http://www.w3.org/2000/svg">
<path d="M14.5507 2.67002L6.40988 5.37461C0.937593 7.20471 0.937593 10.1888 6.40988 12.0099L8.82598 12.8122L9.62834 15.2283C11.4494 20.7006 14.4425 20.7006 16.2636 15.2283L18.9772 7.09653C20.1853 3.44533 18.2019 1.45295 14.5507 2.67002ZM14.8392 7.52025L11.4134 10.9641C11.2781 11.0993 11.1068 11.1624 10.9356 11.1624C10.7643 11.1624 10.593 11.0993 10.4577 10.9641C10.1963 10.7026 10.1963 10.2699 10.4577 10.0085L13.8836 6.56463C14.145 6.30318 14.5777 6.30318 14.8392 6.56463C15.1006 6.82607 15.1006 7.2588 14.8392 7.52025Z" fill="white"/>
</svg>
