<svg width="40" height="40" viewBox="0 0 40 40" fill="none" xmlns="http://www.w3.org/2000/svg">
<g clip-path="url(#clip0_538_3099)">
<rect width="40" height="40" rx="8" fill="#008FE9"/>
<path opacity="0.4" d="M25.53 15.77C25.46 15.76 25.39 15.76 25.32 15.77C23.77 15.72 22.54 14.45 22.54 12.89C22.54 11.3 23.83 10 25.43 10C27.02 10 28.32 11.29 28.32 12.89C28.31 14.45 27.08 15.72 25.53 15.77Z" fill="white"/>
<path opacity="0.4" d="M28.79 22.7004C27.67 23.4504 26.1 23.7304 24.65 23.5404C25.03 22.7204 25.23 21.8104 25.24 20.8504C25.24 19.8504 25.02 18.9004 24.6 18.0704C26.08 17.8704 27.65 18.1504 28.78 18.9004C30.36 19.9404 30.36 21.6504 28.79 22.7004Z" fill="white"/>
<path opacity="0.4" d="M14.44 15.77C14.51 15.76 14.58 15.76 14.65 15.77C16.2 15.72 17.43 14.45 17.43 12.89C17.43 11.3 16.14 10 14.54 10C12.95 10 11.65 11.29 11.65 12.89C11.66 14.45 12.89 15.72 14.44 15.77Z" fill="white"/>
<path opacity="0.4" d="M14.55 20.8506C14.55 21.8206 14.76 22.7406 15.14 23.5706C13.73 23.7206 12.26 23.4206 11.18 22.7106C9.6 21.6606 9.6 19.9506 11.18 18.9006C12.25 18.1806 13.76 17.8906 15.18 18.0506C14.77 18.8906 14.55 19.8406 14.55 20.8506Z" fill="white"/>
<path d="M20.12 23.87C20.04 23.86 19.95 23.86 19.86 23.87C18.02 23.81 16.55 22.3 16.55 20.44C16.55 18.54 18.08 17 19.99 17C21.89 17 23.43 18.54 23.43 20.44C23.43 22.3 21.97 23.81 20.12 23.87Z" fill="white"/>
<path d="M16.87 25.9406C15.36 26.9506 15.36 28.6106 16.87 29.6106C18.59 30.7606 21.41 30.7606 23.13 29.6106C24.64 28.6006 24.64 26.9406 23.13 25.9406C21.42 24.7906 18.6 24.7906 16.87 25.9406Z" fill="white"/>
<g filter="url(#filter0_f_538_3099)">
<circle cx="7.5" cy="7.5" r="6.5" fill="white"/>
</g>
</g>
<defs>
<filter id="filter0_f_538_3099" x="-12" y="-12" width="39" height="39" filterUnits="userSpaceOnUse" color-interpolation-filters="sRGB">
<feFlood flood-opacity="0" result="BackgroundImageFix"/>
<feBlend mode="normal" in="SourceGraphic" in2="BackgroundImageFix" result="shape"/>
<feGaussianBlur stdDeviation="6.5" result="effect1_foregroundBlur_538_3099"/>
</filter>
<clipPath id="clip0_538_3099">
<rect width="40" height="40" rx="8" fill="white"/>
</clipPath>
</defs>
</svg>
