<svg width="40" height="40" viewBox="0 0 40 40" fill="none" xmlns="http://www.w3.org/2000/svg">
<g clip-path="url(#clip0_538_3168)">
<rect width="40" height="40" rx="8" fill="#008FE9"/>
<path d="M30 14.0001V16.4201C30 18.0001 29 19.0001 27.42 19.0001H24V12.0101C24 10.9001 24.91 9.99008 26.02 10.0001C27.11 10.0101 28.11 10.4501 28.83 11.1701C29.55 11.9001 30 12.9001 30 14.0001Z" fill="white"/>
<path opacity="0.4" d="M10 15V29C10 29.83 10.94 30.3 11.6 29.8L13.31 28.52C13.71 28.22 14.27 28.26 14.63 28.62L16.29 30.29C16.68 30.68 17.32 30.68 17.71 30.29L19.39 28.61C19.74 28.26 20.3 28.22 20.69 28.52L22.4 29.8C23.06 30.29 24 29.82 24 29V12C24 10.9 24.9 10 26 10H15H14C11 10 10 11.79 10 14V15Z" fill="white"/>
<path d="M20 20.2598H17C16.59 20.2598 16.25 20.5998 16.25 21.0098C16.25 21.4198 16.59 21.7598 17 21.7598H20C20.41 21.7598 20.75 21.4198 20.75 21.0098C20.75 20.5998 20.41 20.2598 20 20.2598Z" fill="white"/>
<path d="M17 17.7598H20C20.41 17.7598 20.75 17.4198 20.75 17.0098C20.75 16.5998 20.41 16.2598 20 16.2598H17C16.59 16.2598 16.25 16.5998 16.25 17.0098C16.25 17.4198 16.59 17.7598 17 17.7598Z" fill="white"/>
<path d="M13.97 16.0098C13.41 16.0098 12.97 16.4598 12.97 17.0098C12.97 17.5598 13.42 18.0098 13.97 18.0098C14.52 18.0098 14.97 17.5598 14.97 17.0098C14.97 16.4598 14.52 16.0098 13.97 16.0098Z" fill="white"/>
<path d="M13.97 20.0098C13.41 20.0098 12.97 20.4598 12.97 21.0098C12.97 21.5598 13.42 22.0098 13.97 22.0098C14.52 22.0098 14.97 21.5598 14.97 21.0098C14.97 20.4598 14.52 20.0098 13.97 20.0098Z" fill="white"/>
<g filter="url(#filter0_f_538_3168)">
<circle cx="7.5" cy="7.5" r="6.5" fill="white"/>
</g>
</g>
<defs>
<filter id="filter0_f_538_3168" x="-12" y="-12" width="39" height="39" filterUnits="userSpaceOnUse" color-interpolation-filters="sRGB">
<feFlood flood-opacity="0" result="BackgroundImageFix"/>
<feBlend mode="normal" in="SourceGraphic" in2="BackgroundImageFix" result="shape"/>
<feGaussianBlur stdDeviation="6.5" result="effect1_foregroundBlur_538_3168"/>
</filter>
<clipPath id="clip0_538_3168">
<rect width="40" height="40" rx="8" fill="white"/>
</clipPath>
</defs>
</svg>
