<svg width="10" height="10" viewBox="0 0 10 10" fill="none" xmlns="http://www.w3.org/2000/svg">
<path d="M7.04536 0.205702L2.36142 1.76183C-0.78714 2.81481 -0.78714 4.53173 2.36142 5.57952L3.75156 6.04117L4.21321 7.43131C5.261 10.5799 6.98311 10.5799 8.0309 7.43131L9.59222 2.75256C10.2873 0.651791 9.14613 -0.494554 7.04536 0.205702ZM7.21134 2.99635L5.24025 4.97782C5.16245 5.05563 5.06389 5.09194 4.96534 5.09194C4.86678 5.09194 4.76823 5.05563 4.69042 4.97782C4.54 4.82739 4.54 4.57841 4.69042 4.42799L6.66151 2.44652C6.81194 2.2961 7.06092 2.2961 7.21134 2.44652C7.36177 2.59695 7.36177 2.84593 7.21134 2.99635Z" fill="#008FE9"/>
</svg>
