<svg width="33" height="33" viewBox="0 0 33 33" fill="none" xmlns="http://www.w3.org/2000/svg">
<circle cx="16.1396" cy="16.1396" r="16.1396" fill="#099298"/>
<path fill-rule="evenodd" clip-rule="evenodd" d="M11.0271 10.8049L8.08303 16.9877C8.07125 17.0101 8.0672 17.0358 8.07149 17.0607C8.07578 17.0856 8.08818 17.1085 8.10676 17.1257L16.0541 24.7449C16.077 24.7655 16.1066 24.7769 16.1374 24.7769C16.1682 24.7769 16.1979 24.7655 16.2208 24.7449L24.1728 17.1257C24.1912 17.1084 24.2035 17.0855 24.2078 17.0607C24.2121 17.0358 24.2081 17.0102 24.1966 16.9877L21.2525 10.8049C21.2447 10.7834 21.2303 10.7649 21.2113 10.7521C21.1924 10.7393 21.1699 10.7327 21.147 10.7335H11.1316C11.109 10.7341 11.0871 10.7411 11.0684 10.7538C11.0497 10.7665 11.035 10.7842 11.026 10.8049H11.0271Z" fill="white"/>
<path fill-rule="evenodd" clip-rule="evenodd" d="M17.1626 17.6203C17.1057 17.625 16.8108 17.644 16.1543 17.644C15.6312 17.644 15.2601 17.6298 15.1269 17.6203C13.1057 17.5301 11.5981 17.1779 11.5981 16.7594C11.5981 16.3408 13.1057 15.9842 15.1269 15.894V17.2684C15.2588 17.2779 15.636 17.3016 16.159 17.3016C16.7868 17.3016 17.1006 17.2732 17.1579 17.2684V15.894C19.1743 15.9842 20.682 16.3363 20.682 16.7546C20.682 17.1729 19.1785 17.5301 17.1626 17.6203ZM17.1626 15.756V14.524H19.9783V12.6455H12.3116V14.524H15.1269V15.756C12.8394 15.8615 11.1178 16.3123 11.1178 16.8593C11.1178 17.4064 12.8394 17.8534 15.1269 17.9626V21.9056H17.1626V17.9626C19.4455 17.8571 21.1625 17.4061 21.1625 16.8641C21.1625 16.322 19.4455 15.8602 17.1626 15.756Z" fill="#099298"/>
</svg>
