<svg width="11" height="11" viewBox="0 0 11 11" fill="none" xmlns="http://www.w3.org/2000/svg">
<path d="M7.36722 0H3.01646C1.12663 0 0 1.12663 0 3.01646V7.36203C0 9.25706 1.12663 10.3837 3.01646 10.3837H7.36203C9.25186 10.3837 10.3785 9.25706 10.3785 7.36722V3.01646C10.3837 1.12663 9.25706 0 7.36722 0ZM3.35912 4.66227C3.50969 4.51171 3.75889 4.51171 3.90946 4.66227L4.80245 5.55527V2.34152C4.80245 2.12866 4.97898 1.95213 5.19184 1.95213C5.40471 1.95213 5.58123 2.12866 5.58123 2.34152V5.55527L6.47423 4.66227C6.62479 4.51171 6.874 4.51171 7.02456 4.66227C7.17513 4.81284 7.17513 5.06205 7.02456 5.21261L5.46701 6.77016C5.43067 6.80651 5.38913 6.83246 5.34241 6.85323C5.29568 6.874 5.24376 6.88438 5.19184 6.88438C5.13992 6.88438 5.0932 6.874 5.04128 6.85323C4.99455 6.83246 4.95302 6.80651 4.91667 6.77016L3.35912 5.21261C3.20856 5.06205 3.20856 4.81803 3.35912 4.66227ZM8.43155 7.90198C7.38799 8.24984 6.29251 8.42636 5.19184 8.42636C4.09117 8.42636 2.99569 8.24984 1.95213 7.90198C1.74965 7.83449 1.64062 7.61124 1.70812 7.40876C1.77561 7.20628 1.99367 7.09206 2.20134 7.16474C4.13271 7.80853 6.25617 7.80853 8.18754 7.16474C8.39002 7.09725 8.61327 7.20628 8.68076 7.40876C8.74306 7.61643 8.63403 7.83449 8.43155 7.90198Z" fill="#008FE9"/>
</svg>
