<svg width="24" height="24" viewBox="0 0 24 24" fill="none" xmlns="http://www.w3.org/2000/svg">
<path d="M23.001 17.5825L20.3525 19.3599V13.1968L17.2959 15.2769V19.3599L14.6475 21.1372V17.0786L12 18.8804L9.25 17.0093V21.1372L6.60156 19.3599V15.2065L3.64746 13.1968V19.3599L0.999023 17.5825V3.36377H1L1.10352 3.43408L3.64746 5.14111V5.15674L12 10.8149L20.3525 5.15674V5.14111L23.001 3.36377V17.5825ZM9.25 14.4204L12 16.2837L14.6475 14.4897V11.6108L12 13.4126L9.25 11.5405V14.4204ZM17.2959 9.80811V12.6958L20.3525 10.6255V7.72803L17.2959 9.80811ZM3.64746 10.6255L6.60156 12.6265V9.73877L3.64746 7.72803V10.6255Z" fill="#008FE9"/>
</svg>
